<?xml version="1.0" encoding="UTF-8"?> <svg xmlns="http://www.w3.org/2000/svg" width="42" height="42" viewBox="0 0 42 42" fill="none"><path d="M16.2355 17.0756C17.8442 18.6749 17.7699 19.8067 17.1264 20.4464C16.8294 20.7417 16.3592 20.9139 15.889 20.9139C15.4435 20.9139 14.9732 20.7417 14.6515 20.4464C14.0327 19.8067 13.9337 18.6749 15.5425 17.0756C15.7405 16.8788 16.0622 16.8788 16.2355 17.0756ZM16.2355 22.8331C17.8442 24.4324 17.7699 25.5888 17.1264 26.2039C16.8294 26.5238 16.3592 26.6714 15.889 26.6714C15.4435 26.6714 14.9732 26.5238 14.6515 26.2039C14.0327 25.5888 13.9337 24.4324 15.5425 22.8331C15.7405 22.6608 16.0622 22.6608 16.2355 22.8331ZM21.3339 17.0756C22.9426 18.6749 22.8683 19.8067 22.2496 20.4464C21.9279 20.7417 21.4576 20.9139 20.9874 20.9139C20.5419 20.9139 20.0716 20.7417 19.7499 20.4464C19.1312 19.8067 19.0322 18.6749 20.6409 17.0756C20.8389 16.8788 21.1606 16.8788 21.3339 17.0756ZM21.3339 22.8331C22.9426 24.4324 22.8683 25.5888 22.2496 26.2039C21.9279 26.5238 21.4576 26.6714 20.9874 26.6714C20.5419 26.6714 20.0716 26.5238 19.7499 26.2039C19.1312 25.5888 19.0322 24.4324 20.6409 22.8331C20.8389 22.6608 21.1606 22.6608 21.3339 22.8331ZM26.457 17.0756C28.041 18.6749 27.9667 19.8067 27.348 20.4464C27.0263 20.7417 26.556 20.9139 26.0858 20.9139C25.6403 20.9139 25.17 20.7417 24.8483 20.4464C24.2296 19.8067 24.1553 18.6749 25.7393 17.0756C25.9373 16.8788 26.259 16.8788 26.457 17.0756ZM26.457 22.8331C28.041 24.4324 27.9667 25.5888 27.348 26.2039C27.0263 26.5238 26.556 26.6714 26.0858 26.6714C25.6403 26.6714 25.17 26.5238 24.8483 26.2039C24.2296 25.5888 24.1553 24.4324 25.7393 22.8331C25.9373 22.6608 26.259 22.6608 26.457 22.8331Z" fill="white"></path><path fill-rule="evenodd" clip-rule="evenodd" d="M4.03516 37.0052V34.5201C4.03516 32.1827 5.96562 30.2635 8.34158 30.2635H12.4253V37.0052H4.03516ZM13.4152 30.2635H20.4936V37.0052H13.4152V30.2635ZM21.4836 30.2635H28.5867V37.0052H21.4836V30.2635ZM29.5767 30.2635H33.6356C36.0116 30.2635 37.9421 32.1827 37.9421 34.5201V37.0052H29.5767V30.2635Z" fill="white"></path><path fill-rule="evenodd" clip-rule="evenodd" d="M15.8888 15.4516C14.7751 15.4516 13.8594 14.5413 13.8594 13.4341V9.44812C13.9831 9.47272 14.0821 9.47272 14.1811 9.47272H17.9183V13.4341C17.9183 14.5413 17.0026 15.4516 15.8888 15.4516Z" fill="white"></path><path fill-rule="evenodd" clip-rule="evenodd" d="M20.9865 15.4517C19.8728 15.4517 18.957 14.5413 18.957 13.4341V9.47278H23.016V13.4341C23.016 14.5413 22.125 15.4517 20.9865 15.4517Z" fill="white"></path><path fill-rule="evenodd" clip-rule="evenodd" d="M26.0861 15.4516C24.9724 15.4516 24.0566 14.5413 24.0566 13.4341V9.47272H27.7938C27.9176 9.47272 28.0166 9.47272 28.1403 9.44812V13.4341C28.1403 14.5413 27.2246 15.4516 26.0861 15.4516Z" fill="white"></path><path fill-rule="evenodd" clip-rule="evenodd" d="M27.793 8.66075H14.1807C12.77 8.66075 11.582 7.50434 11.582 6.07727V4.84705H30.3917V6.07727C30.3917 7.50434 29.2285 8.66075 27.793 8.66075Z" fill="white"></path><path fill-rule="evenodd" clip-rule="evenodd" d="M37.3467 4.03515H4.65251C3.53878 4.03515 2.62305 3.12478 2.62305 2.01757C2.62305 0.910369 3.53878 0 4.65251 0H37.3467C38.4604 0 39.3761 0.910369 39.3761 2.01757C39.3761 3.12478 38.4604 4.03515 37.3467 4.03515Z" fill="white"></path><path fill-rule="evenodd" clip-rule="evenodd" d="M39.8963 42H2.10371C0.940483 42 0 41.0651 0 39.9086C0 38.7522 0.940483 37.8173 2.10371 37.8173H39.8963C41.0348 37.8173 42 38.7522 42 39.9086C42 41.0651 41.0348 42 39.8963 42Z" fill="white"></path></svg> 