<?xml version="1.0" encoding="UTF-8"?> <svg xmlns="http://www.w3.org/2000/svg" width="46" height="46" viewBox="0 0 46 46" fill="none"><rect width="46" height="46" rx="10" fill="#600004"></rect><g clip-path="url(#clip0_365_1325)"><path d="M34.4785 13.993L28.7234 19.7476C27.0975 21.3756 24.6343 18.9242 26.2672 17.2913L32.0217 11.5363C33.6627 9.89674 36.0723 12.397 34.4785 13.993Z" fill="white"></path><path d="M19.7474 28.7226L13.9928 34.4777C12.3985 36.0695 9.89501 33.662 11.5361 32.0209L17.2912 26.2663C18.9154 24.6421 21.3804 27.0896 19.7474 28.7226Z" fill="white"></path><path d="M14.054 20.2807L12.89 19.8709C12.6818 19.798 12.5725 19.5699 12.6459 19.3618C12.7188 19.1541 12.9469 19.0448 13.155 19.1177L14.319 19.5275C14.5271 19.6003 14.6364 19.8285 14.5636 20.0366C14.4907 20.2432 14.264 20.3546 14.054 20.2807Z" fill="white"></path><path d="M19.6232 21.4172C19.6946 21.5699 19.6627 21.7506 19.5439 21.8694L17.9681 23.4452C17.3536 24.0597 17.0022 24.7704 16.9344 25.5126C16.7805 25.6385 16.967 25.4611 13.8512 28.5769C12.7403 26.1148 13.1496 23.3511 15.3706 21.1307L17.0631 19.4376C17.1754 19.3253 17.3437 19.2904 17.4919 19.3483L17.7405 19.4461C17.8593 19.493 17.9481 19.5934 17.9806 19.7166L18.1607 20.4035L19.0627 20.5956C19.185 20.6216 19.2883 20.7034 19.3412 20.8167L19.6232 21.4172Z" fill="white"></path><path d="M28.5779 13.8503C25.477 16.9537 25.6478 16.7695 25.5136 16.935C24.7714 17.0023 24.0607 17.3532 23.4457 17.9682L21.551 19.8629C21.3556 20.0583 21.0255 20.0019 20.9071 19.7501L20.7094 19.3288L19.7606 19.1272C19.6128 19.0957 19.4955 18.9839 19.4571 18.8377L19.2664 18.1089L19.2065 18.0855C18.9381 17.9796 18.8671 17.6348 19.0703 17.4316L21.1312 15.3706C23.3584 13.1435 26.1359 12.7522 28.5779 13.8503Z" fill="white"></path><path d="M19.1185 13.1555C19.0452 12.9473 19.1545 12.7192 19.3626 12.6463C19.5708 12.573 19.7989 12.6823 19.8717 12.8904L20.2815 14.0544C20.3549 14.2625 20.2456 14.4907 20.0375 14.564C19.8208 14.6379 19.599 14.5216 19.5283 14.3195L19.1185 13.1555Z" fill="white"></path><path d="M14.2477 14.8121C14.0919 14.6559 14.0919 14.4033 14.2477 14.2471C14.4039 14.0913 14.6565 14.0913 14.8127 14.2471L16.6805 16.1149C16.8362 16.2711 16.8362 16.5237 16.6805 16.6799C16.525 16.8353 16.272 16.8359 16.1159 16.6799L14.2477 14.8121Z" fill="white"></path><path d="M26.8968 32.8585C26.9886 33.119 26.7942 33.3906 26.5199 33.3906C26.3552 33.3906 26.201 33.2877 26.1436 33.1235L25.7338 31.9595C25.6604 31.7514 25.7697 31.5233 25.9778 31.4499C26.186 31.377 26.4141 31.4864 26.487 31.6945L26.8968 32.8585Z" fill="white"></path><path d="M27.082 28.7286L25.0255 30.7851C22.7869 33.0229 19.9497 33.458 17.3867 32.2136C20.7984 28.8017 20.3204 29.281 20.3661 29.2327C21.2076 29.2352 22.0192 28.8779 22.71 28.1871L24.486 26.4116C24.5913 26.3058 24.7475 26.2684 24.8898 26.3138L26.0717 26.6921C26.2509 26.7495 26.3657 26.9242 26.3473 27.1119L26.2779 27.8127L26.9452 28.0742C27.2127 28.1797 27.2852 28.5243 27.082 28.7286Z" fill="white"></path><path d="M30.7855 25.025L29.0879 26.7221C29.0115 26.7984 28.9097 26.8389 28.8054 26.8389C28.7033 26.8389 28.7564 26.8501 27.7108 26.4396C27.5445 26.3743 27.4417 26.206 27.4592 26.0283L27.5266 25.3479L26.6526 25.0679C26.3673 24.9767 26.2814 24.6161 26.4919 24.4056L28.187 22.7095C28.8788 22.0182 29.2366 21.2061 29.2337 20.3645C29.2707 20.3306 29.0905 20.5097 32.2155 17.3847C33.4085 19.8319 33.099 22.7107 30.7855 25.025Z" fill="white"></path><path d="M33.368 26.6522C33.2947 26.8618 33.0646 26.9687 32.8589 26.8963L31.6949 26.4865C31.4868 26.4136 31.3774 26.1855 31.4503 25.9773C31.5237 25.7692 31.7518 25.6604 31.9599 25.7333L33.1239 26.1431C33.3321 26.2159 33.4414 26.444 33.368 26.6522Z" fill="white"></path><path d="M31.7664 31.2018C32.0168 31.453 31.8386 31.8837 31.4839 31.8837C31.3816 31.8837 31.2792 31.8447 31.2014 31.7669L29.3336 29.8991C29.1779 29.7428 29.1779 29.4903 29.3336 29.3341C29.4893 29.1783 29.7424 29.1783 29.8981 29.3341L31.7664 31.2018Z" fill="white"></path></g><defs><clipPath id="clip0_365_1325"><rect width="24" height="24" fill="white" transform="translate(11 11)"></rect></clipPath></defs></svg> 