<?xml version="1.0"?> <svg xmlns="http://www.w3.org/2000/svg" width="18" height="18" viewBox="0 0 18 18" fill="none"><circle cx="9" cy="9" r="9" fill="#D71921"></circle><path d="M13 9.02282C13.0006 8.92844 12.9816 8.83488 12.9443 8.74751C12.907 8.66014 12.8521 8.58067 12.7826 8.51366L8.28491 4.2109C8.14375 4.07586 7.95231 4 7.75268 4C7.55306 4 7.36161 4.07586 7.22046 4.2109C7.0793 4.34594 7 4.52909 7 4.72006C7 4.91103 7.0793 5.09418 7.22046 5.22922L11.1934 9.02282L7.22795 12.8164C7.10515 12.9536 7.04097 13.1301 7.04826 13.3106C7.05555 13.491 7.13376 13.6622 7.26726 13.79C7.40076 13.9177 7.57972 13.9925 7.76838 13.9995C7.95704 14.0064 8.14151 13.945 8.28491 13.8276L12.7826 9.52481C12.9211 9.39123 12.9992 9.21095 13 9.02282Z" fill="white"></path></svg>