<?xml version="1.0" encoding="UTF-8"?> <svg xmlns="http://www.w3.org/2000/svg" width="50" height="50" viewBox="0 0 50 50" fill="none"><g clip-path="url(#clip0_842_1995)"><path d="M42.1901 22.0025C40.9707 19.6549 42.7053 18.2506 42.8222 17.0374C43.3601 11.4414 41.4713 8.01543 38.9014 5.3047C34.6569 0.814826 29.1997 -0.0291314 25.627 0.000753192C16.4809 0.0670385 12.7793 2.96899 9.97889 6.09226C4.15384 12.5941 5.38631 18.3025 5.38631 18.3025C5.52517 21.6871 10.1968 27.8509 10.1968 27.8509C13.9203 33.2045 12.0908 37.3351 12.0908 37.3351C19.6107 39.0257 25.7753 50.0001 25.7753 50.0001C26.0474 48.3744 29.6608 41.5131 29.6608 41.5131C31.1709 39.6153 33.7064 40.282 35.0757 40.4494C39.0016 40.9329 39.9777 39.7775 39.9777 39.7775C40.8356 39.2529 40.4294 37.0679 40.4294 37.0679C40.1148 35.9379 40.6273 35.3854 40.9475 34.943C41.8081 33.7409 41.3099 33.1832 41.3099 33.1832C41.039 32.8419 41.221 32.6628 41.221 32.6628C42.1681 32.3466 42.237 31.8287 42.237 31.8287L42.2132 30.0902C42.0566 28.8962 42.597 28.8232 42.597 28.8232C44.7658 28.7832 44.7179 27.3793 44.7179 27.3793C44.8051 26.6079 42.1901 22.0025 42.1901 22.0025ZM13.9342 21.2208C13.7026 20.7786 13.6468 20.2468 13.8333 19.5859C13.9668 19.119 14.0711 18.7319 13.9342 18.4272C13.7956 18.1157 13.4988 18.0014 13.0444 18.184C12.751 18.3155 12.4447 18.5824 12.2814 18.846L11.5441 18.0119C11.7825 17.6805 12.2369 17.2603 12.8689 16.9774C14.045 16.4494 14.8726 16.8606 15.2038 17.6003C15.5073 18.2777 15.2869 18.9112 15.1168 19.4392C14.9494 19.9517 14.9728 20.3595 15.1593 20.7566L15.231 20.9172L14.047 21.4491L13.9342 21.2208ZM15.5192 23.2375C15.0478 23.4466 14.5717 23.2442 14.3636 22.782C14.1526 22.3072 14.331 21.823 14.7935 21.6165C15.275 21.4012 15.7385 21.5985 15.9576 22.0675C16.1668 22.5303 15.9994 23.0213 15.5192 23.2375ZM25.6243 27.1921C24.0849 27.564 22.7628 26.6861 22.3995 25.1728C22.0256 23.6334 22.8324 22.2681 24.346 21.9037C25.9139 21.5239 27.2021 22.3825 27.6032 23.9151C27.9697 25.4231 27.197 26.8124 25.6243 27.1921ZM26.5262 15.5266C25.7387 16.9774 25.578 18.218 25.924 19.5196L26.0515 20.0443L22.1837 20.9799L21.9714 20.2321C21.5252 18.7698 21.6559 17.1397 22.5824 15.2518C23.2443 13.9216 23.7762 12.8093 23.5366 11.8218C23.2895 10.8032 22.4594 10.297 20.9926 10.5925C20.0325 10.825 18.954 11.4557 18.3237 12.1604L16.5713 9.23261C17.4683 8.3673 19.0735 7.36516 21.1353 6.86589C24.9716 5.93542 27.2302 7.63412 27.8158 10.0494C28.3497 12.2541 27.3363 14.0371 26.5262 15.5266ZM33.8255 17.1176C33.6516 17.8926 32.9822 18.3582 32.1733 18.1755C31.3804 17.9989 30.9725 17.2969 31.1453 16.5166C31.3233 15.7236 32.0032 15.2787 32.7816 15.4529C33.5891 15.6353 33.9877 16.3206 33.8255 17.1176ZM37.0623 10.7853C36.8072 11.9233 35.9386 12.5138 35.2281 13.0158C34.5376 13.5054 34.1803 14.04 34.0473 14.7159L33.9864 14.9853L31.9956 14.5417L32.0686 14.1485C32.196 13.3776 32.6225 12.6538 33.4752 11.9957C34.0808 11.5348 34.5787 11.143 34.6931 10.6343C34.8099 10.1089 34.5443 9.69054 33.8017 9.49078C33.3078 9.38046 32.6703 9.42764 32.2201 9.61032L32.0765 7.86511C32.6834 7.67052 33.6503 7.573 34.7126 7.80938C36.6839 8.25046 37.34 9.54336 37.0623 10.7853Z" fill="#600004"></path></g><defs><clipPath id="clip0_842_1995"><rect width="50" height="50" fill="white"></rect></clipPath></defs></svg> 