<?xml version="1.0" encoding="UTF-8"?> <svg xmlns="http://www.w3.org/2000/svg" width="46" height="46" viewBox="0 0 46 46" fill="none"><rect width="46" height="46" rx="10" fill="#600004"></rect><g clip-path="url(#clip0_365_1312)"><path d="M29.7131 23C29.7131 19.2979 26.7012 16.2861 22.9992 16.2861C19.2971 16.2861 16.2852 19.2979 16.2852 23C16.2852 26.7021 19.297 29.714 22.9991 29.714C26.7012 29.714 29.7131 26.7021 29.7131 23ZM24.9991 24.9999C24.8618 25.1372 24.6818 25.2059 24.5019 25.2059C24.322 25.2059 24.142 25.1373 24.0048 24.9999L22.502 23.4972C22.3702 23.3653 22.296 23.1865 22.296 23V19.9946C22.296 19.6063 22.6109 19.2915 22.9992 19.2915C23.3875 19.2915 23.7023 19.6063 23.7023 19.9946V22.7087L24.9991 24.0056C25.2736 24.2802 25.2736 24.7253 24.9991 24.9999Z" fill="white"></path><path d="M33.1706 18.2574C31.9309 15.5989 29.7504 13.5692 27.0181 12.5227L27.4087 12.3406C27.7607 12.1765 27.9129 11.7581 27.7488 11.4062C27.5847 11.0542 27.1662 10.9019 26.8144 11.0661L24.8884 11.9642C24.7194 12.043 24.5885 12.1857 24.5247 12.361C24.461 12.5362 24.4694 12.7296 24.5482 12.8986L25.4464 14.8247C25.5657 15.0805 25.8193 15.2308 26.0841 15.2308C26.1835 15.2308 26.2846 15.2096 26.3808 15.1647C26.7327 15.0006 26.885 14.5823 26.7209 14.2303L26.5416 13.8459C31.5063 15.7653 34.0524 21.3331 32.2238 26.3573C31.0356 29.6215 28.2884 31.969 24.8749 32.6368C24.4938 32.7113 24.2453 33.0807 24.3199 33.4618C24.3855 33.7973 24.6796 34.0301 25.0091 34.0301C25.0539 34.0301 25.0993 34.0258 25.1448 34.0169C27.01 33.652 28.7652 32.8137 30.2209 31.5926C31.7219 30.3334 32.8714 28.6894 33.5452 26.8382C34.5704 24.0214 34.4374 20.974 33.1706 18.2574Z" fill="white"></path><path d="M20.553 31.1754C20.3889 30.8234 19.9706 30.6712 19.6186 30.8353C19.2667 30.9994 19.1144 31.4178 19.2785 31.7697L19.4578 32.1541C14.4931 30.2348 11.947 24.6669 13.7757 19.6428C14.9638 16.3785 17.711 14.031 21.1245 13.3633C21.5056 13.2887 21.7541 12.9194 21.6796 12.5382C21.605 12.1571 21.2357 11.9087 20.8545 11.9832C18.9894 12.3481 17.2341 13.1864 15.7785 14.4074C14.2775 15.6666 13.128 17.3107 12.4542 19.1618C11.429 21.9786 11.5621 25.026 12.8288 27.7427C14.0685 30.4011 16.249 32.4308 18.9813 33.4773L18.5907 33.6595C18.2388 33.8236 18.0865 34.242 18.2506 34.5939C18.3699 34.8497 18.6235 35.0001 18.8883 35C18.9878 35 19.0889 34.9788 19.185 34.934L21.111 34.0358C21.28 33.9571 21.4108 33.8143 21.4746 33.6391C21.5384 33.4639 21.53 33.2705 21.4512 33.1015L20.553 31.1754Z" fill="white"></path></g><defs><clipPath id="clip0_365_1312"><rect width="24" height="24" fill="white" transform="translate(11 11)"></rect></clipPath></defs></svg> 