<?xml version="1.0" encoding="UTF-8"?> <svg xmlns="http://www.w3.org/2000/svg" width="50" height="50" viewBox="0 0 50 50" fill="none"><path d="M30.207 23.957H19.7904C18.6398 23.957 17.707 24.8898 17.707 26.0404V27.082C17.707 28.2326 18.6398 29.1654 19.7904 29.1654H30.207C31.3576 29.1654 32.2904 28.2326 32.2904 27.082V26.0404C32.2904 24.8898 31.3576 23.957 30.207 23.957Z" fill="#600004"></path><path d="M27.895 32.293H22.105C21.8863 32.293 21.6732 32.2242 21.4959 32.0963C21.3185 31.9685 21.1859 31.7881 21.1167 31.5807L20.3125 29.168H29.6875L28.8833 31.5807C28.8141 31.7881 28.6815 31.9685 28.5041 32.0963C28.3268 32.2242 28.1137 32.293 27.895 32.293Z" fill="#600004"></path><path d="M29.1653 26.0417H20.8319C20.2796 26.0412 19.75 25.8215 19.3594 25.4309C18.9688 25.0403 18.7491 24.5107 18.7486 23.9584V22.3715C18.7516 22.2256 18.7221 22.0808 18.6623 21.9478C18.6025 21.8147 18.5138 21.6965 18.4027 21.6019C17.1966 20.619 16.227 19.3773 15.5657 17.9689C14.9044 16.5605 14.5683 15.0213 14.5825 13.4655C14.6226 10.7734 15.6954 8.19963 17.5791 6.27597C19.4628 4.35232 22.0135 3.22579 24.7041 3.12915C26.0963 3.08983 27.4822 3.33007 28.7799 3.83566C30.0776 4.34126 31.2607 5.10193 32.2593 6.07271C33.258 7.04349 34.0518 8.20466 34.5938 9.48755C35.1359 10.7704 35.4152 12.149 35.4153 13.5417C35.4173 15.0845 35.0755 16.6084 34.4148 18.0026C33.754 19.3967 32.7909 20.6261 31.5955 21.6014C31.4841 21.6959 31.3952 21.8141 31.3352 21.9473C31.2752 22.0805 31.2456 22.2254 31.2486 22.3715V23.9584C31.248 24.5107 31.0283 25.0403 30.6377 25.4308C30.2471 25.8214 29.7176 26.0411 29.1653 26.0417ZM25.0001 5.20838C24.9208 5.20838 24.8414 5.2094 24.7621 5.21143C22.6097 5.28883 20.5692 6.19014 19.0624 7.72912C17.5556 9.2681 16.6977 11.3271 16.6658 13.4807C16.6546 14.7256 16.9236 15.9571 17.4528 17.0839C17.9821 18.2108 18.758 19.2042 19.7231 19.9906C20.0732 20.2802 20.3543 20.6441 20.5461 21.056C20.7379 21.4678 20.8355 21.9172 20.8319 22.3715V23.9584H29.1653V22.3715C29.1616 21.9168 29.2595 21.4671 29.4516 21.055C29.6438 20.643 29.9255 20.279 30.2761 19.9896C31.6061 18.9011 32.567 17.428 33.0272 15.7721C33.4874 14.1162 33.4242 12.3585 32.8465 10.7399C32.2687 9.12127 31.2046 7.72089 29.7999 6.73063C28.3953 5.74036 26.7187 5.20866 25.0001 5.20838Z" fill="#600004"></path><path d="M41.6669 15.1029H39.6589C39.3826 15.1029 39.1176 14.9931 38.9223 14.7978C38.7269 14.6024 38.6172 14.3375 38.6172 14.0612C38.6172 13.7849 38.7269 13.52 38.9223 13.3246C39.1176 13.1293 39.3826 13.0195 39.6589 13.0195H41.6669C41.9432 13.0195 42.2081 13.1293 42.4035 13.3246C42.5988 13.52 42.7086 13.7849 42.7086 14.0612C42.7086 14.3375 42.5988 14.6024 42.4035 14.7978C42.2081 14.9931 41.9432 15.1029 41.6669 15.1029Z" fill="#600004"></path><path d="M38.5414 10.8276C38.3355 10.8276 38.1341 10.7665 37.9628 10.652C37.7916 10.5375 37.6581 10.3749 37.5793 10.1846C37.5005 9.99425 37.4798 9.78484 37.52 9.58281C37.5602 9.38077 37.6594 9.19519 37.805 9.04951L38.9199 7.93409C39.0166 7.83738 39.1314 7.76065 39.2578 7.70831C39.3842 7.65597 39.5196 7.62903 39.6564 7.62903C39.7932 7.62903 39.9286 7.65597 40.055 7.70831C40.1813 7.76065 40.2962 7.83737 40.3929 7.93409C40.4896 8.03081 40.5663 8.14563 40.6187 8.272C40.671 8.39836 40.6979 8.5338 40.6979 8.67058C40.6979 8.80736 40.671 8.9428 40.6187 9.06917C40.5663 9.19553 40.4896 9.31035 40.3929 9.40707L39.2779 10.5225C39.1813 10.6193 39.0665 10.6962 38.9401 10.7485C38.8137 10.8009 38.6783 10.8278 38.5414 10.8276Z" fill="#600004"></path><path d="M39.6557 20.4948C39.5189 20.4949 39.3834 20.4681 39.257 20.4157C39.1307 20.3633 39.0159 20.2865 38.9193 20.1896L37.8044 19.0742C37.6111 18.8784 37.5031 18.6142 37.5039 18.3391C37.5048 18.064 37.6144 17.8004 37.809 17.6059C38.0035 17.4113 38.2671 17.3017 38.5422 17.3008C38.8173 17.2999 39.0815 17.4079 39.2773 17.6012L40.3922 18.7166C40.5378 18.8623 40.637 19.0479 40.6772 19.2499C40.7173 19.452 40.6967 19.6614 40.6179 19.8517C40.5391 20.042 40.4056 20.2047 40.2343 20.3191C40.0631 20.4336 39.8617 20.4947 39.6557 20.4948Z" fill="#600004"></path><path d="M10.3432 15.1029H8.33464C8.05837 15.1029 7.79342 14.9931 7.59807 14.7978C7.40272 14.6024 7.29297 14.3375 7.29297 14.0612C7.29297 13.7849 7.40272 13.52 7.59807 13.3246C7.79342 13.1293 8.05837 13.0195 8.33464 13.0195H10.3432C10.6195 13.0195 10.8844 13.1293 11.0798 13.3246C11.2751 13.52 11.3849 13.7849 11.3849 14.0612C11.3849 14.3375 11.2751 14.6024 11.0798 14.7978C10.8844 14.9931 10.6195 15.1029 10.3432 15.1029Z" fill="#600004"></path><path d="M11.4572 10.8275C11.3204 10.8277 11.1849 10.8009 11.0585 10.7485C10.9321 10.6961 10.8173 10.6193 10.7208 10.5223L9.60585 9.40695C9.41052 9.21162 9.30078 8.9467 9.30078 8.67046C9.30078 8.53368 9.32772 8.39824 9.38007 8.27187C9.43241 8.14551 9.50913 8.03069 9.60585 7.93397C9.70256 7.83725 9.81738 7.76053 9.94375 7.70819C10.0701 7.65585 10.2056 7.62891 10.3423 7.62891C10.6186 7.62891 10.8835 7.73864 11.0788 7.93397L12.1937 9.04939C12.3393 9.19507 12.4385 9.38065 12.4787 9.58269C12.5189 9.78472 12.4982 9.99413 12.4194 10.1844C12.3406 10.3748 12.2071 10.5374 12.0358 10.6519C11.8646 10.7664 11.6632 10.8275 11.4572 10.8275Z" fill="#600004"></path><path d="M10.3422 20.4976C10.1362 20.4975 9.93488 20.4364 9.76362 20.3219C9.59236 20.2075 9.45888 20.0448 9.38006 19.8545C9.30124 19.6642 9.28061 19.4548 9.32078 19.2527C9.36096 19.0507 9.46013 18.8651 9.60577 18.7194L10.7207 17.604C10.9165 17.4112 11.1806 17.3036 11.4555 17.3047C11.7303 17.3058 11.9936 17.4154 12.1879 17.6098C12.3822 17.8041 12.4919 18.0674 12.4929 18.3422C12.494 18.617 12.3864 18.8811 12.1936 19.077L11.0787 20.1924C10.9821 20.2893 10.8673 20.3662 10.7409 20.4185C10.6145 20.4709 10.479 20.4978 10.3422 20.4976Z" fill="#600004"></path><path d="M29.1671 16.6667C29.0303 16.6669 28.8948 16.64 28.7684 16.5876C28.6421 16.5352 28.5273 16.4584 28.4307 16.3615L27.0838 15.0147L25.7369 16.3616C25.6402 16.4583 25.5254 16.5351 25.399 16.5874C25.2727 16.6398 25.1372 16.6667 25.0004 16.6667C24.8636 16.6667 24.7282 16.6398 24.6018 16.5874C24.4754 16.5351 24.3606 16.4583 24.2639 16.3616L22.9171 15.0147L21.5703 16.3616C21.3745 16.5549 21.1102 16.6629 20.8351 16.662C20.56 16.6611 20.2964 16.5514 20.1019 16.3569C19.9074 16.1624 19.7977 15.8988 19.7969 15.6237C19.796 15.3486 19.904 15.0843 20.0973 14.8886L22.1807 12.8052C22.2774 12.7085 22.3922 12.6317 22.5185 12.5794C22.6449 12.527 22.7804 12.5001 22.9172 12.5001C23.0539 12.5001 23.1894 12.527 23.3158 12.5794C23.4421 12.6317 23.5569 12.7085 23.6536 12.8052L25.0005 14.1521L26.3473 12.8052C26.444 12.7084 26.5588 12.6317 26.6852 12.5793C26.8116 12.527 26.947 12.5 27.0838 12.5C27.2206 12.5 27.3561 12.527 27.4824 12.5793C27.6088 12.6317 27.7236 12.7084 27.8203 12.8052L29.9036 14.8885C30.0493 15.0342 30.1485 15.2198 30.1887 15.4218C30.2289 15.6239 30.2082 15.8333 30.1294 16.0237C30.0506 16.214 29.9171 16.3767 29.7458 16.4911C29.5745 16.6056 29.3731 16.6667 29.1671 16.6667Z" fill="#600004"></path><path d="M24.9987 22.9154C24.7224 22.9154 24.4575 22.8056 24.2621 22.6103C24.0668 22.4149 23.957 22.15 23.957 21.8737V15.6237C23.957 15.3474 24.0668 15.0825 24.2621 14.8871C24.4575 14.6918 24.7224 14.582 24.9987 14.582C25.275 14.582 25.5399 14.6918 25.7353 14.8871C25.9306 15.0825 26.0404 15.3474 26.0404 15.6237V21.8737C26.0404 22.15 25.9306 22.4149 25.7353 22.6103C25.5399 22.8056 25.275 22.9154 24.9987 22.9154Z" fill="#600004"></path><path d="M36.4596 46.875H13.543L14.3202 38.3256C14.3977 37.4732 14.7357 36.6654 15.2885 36.012C15.8412 35.3585 16.5817 34.8911 17.4094 34.6733L18.543 34.375C20.424 35.7295 22.6834 36.4583 25.0013 36.4583C27.3193 36.4583 29.5786 35.7295 31.4596 34.375L32.5933 34.6733C33.421 34.8911 34.1615 35.3585 34.7142 36.012C35.2669 36.6654 35.605 37.4732 35.6825 38.3256L36.4596 46.875Z" fill="#600004"></path></svg> 