<?xml version="1.0" encoding="UTF-8"?> <svg xmlns="http://www.w3.org/2000/svg" width="50" height="50" viewBox="0 0 50 50" fill="none"><path fill-rule="evenodd" clip-rule="evenodd" d="M35.4195 28.4043V33.166C35.4195 34.5195 34.3121 35.6299 32.9586 35.6299C31.6051 35.6299 30.4947 34.5195 30.4947 33.166V32.166C30.4947 33.5195 29.3873 34.627 28.0338 34.627C27.4771 34.627 26.9625 34.4414 26.5504 34.126C27.1949 33.1816 27.442 31.9775 27.1266 30.7988C26.8775 29.8633 26.3102 29.0908 25.5738 28.5645C24.6187 27.8838 23.3814 27.6152 22.1715 27.9385L20.649 28.3457L16.1891 29.5391C16.0309 29.583 15.8736 29.6357 15.7242 29.6943V27.4023C15.7242 26.0488 16.8316 24.9414 18.1852 24.9414C19.5387 24.9414 20.649 26.0488 20.649 27.4023V26.0654C20.649 24.709 21.7564 23.6016 23.11 23.6016C24.4635 23.6016 25.5738 24.709 25.5738 26.0654V27.4023C25.5738 26.0488 26.6812 24.9414 28.0348 24.9414C29.3883 24.9414 30.4957 26.0488 30.4957 27.4023V28.4043C30.4957 27.0508 31.6061 25.9434 32.9596 25.9434C34.3121 25.9434 35.4195 27.0508 35.4195 28.4043ZM29.8658 35.7705C29.315 36.0527 28.692 36.2109 28.0328 36.2109C27.0338 36.2109 26.1168 35.8457 25.4117 35.2422C25.066 35.4688 24.6812 35.6436 24.2652 35.7539L21.9342 36.3799L22.1998 37.3652C24.401 37.5752 26.2721 38.9346 27.2105 40.834C27.2965 41.0059 27.3072 41.1855 27.2437 41.3652C27.1832 41.5479 27.0641 41.6807 26.8922 41.7637L26.7154 41.8525C26.3717 42.0186 25.9566 41.875 25.7906 41.5342C25.0436 40.0195 23.4986 38.9648 21.7135 38.9209C21.2682 38.9102 20.8971 38.6191 20.7809 38.1875L20.2525 36.2168C20.1109 35.6885 20.4273 35.1426 20.9527 35.002L23.8541 34.2266C24.0592 34.1709 24.2496 34.0908 24.4244 33.9912C25.3795 33.4541 25.8912 32.3135 25.5953 31.209C25.2467 29.9023 23.8902 29.1191 22.5807 29.4678L18.7213 30.5029L16.6012 31.0703C15.148 31.4609 14.2818 32.9609 14.6715 34.4111L16.1715 40.0088C16.3795 40.7891 16.6783 41.4238 17.149 42.0791L17.5035 42.5723C18.315 43.707 18.6969 44.9062 18.6969 46.3008V48.958C18.6969 49.5029 19.1422 49.9492 19.6881 49.9492H31.9625C32.5074 49.9492 32.9537 49.5039 32.9537 48.958V45.8877C32.9537 44.7578 33.2027 43.792 33.7457 42.8037L34.6285 41.1924C35.1734 40.2041 35.4205 39.2383 35.4205 38.1084V36.373C34.7398 36.8994 33.8844 37.2119 32.9596 37.2119C31.7213 37.2129 30.608 36.6504 29.8658 35.7705ZM19.2115 13.4092C19.1285 13.6641 19.2174 13.9297 19.4303 14.085L22.3062 16.167L21.2047 19.541C21.1217 19.793 21.2076 20.0586 21.4234 20.2139C21.6363 20.3721 21.9166 20.3721 22.1295 20.2139L25.0006 18.1211L27.8678 20.2129C28.0836 20.3711 28.3609 20.3711 28.5768 20.2129C28.7926 20.0576 28.8785 19.792 28.7955 19.54L27.691 16.166L30.566 14.084C30.7818 13.9287 30.8678 13.6631 30.7877 13.4082C30.7047 13.1563 30.4781 12.9932 30.2115 12.9932L26.6627 13.001L25.5719 9.62109C25.4889 9.36914 25.2643 9.20312 24.9986 9.20312C24.733 9.20312 24.5055 9.36914 24.4254 9.62109L23.3346 13.001L19.7828 12.9932C19.5182 12.9941 19.2945 13.1572 19.2115 13.4092ZM24.9996 6.59961C25.4371 6.59961 25.7916 6.24512 25.7916 5.80762V0.838867C25.7916 0.401367 25.4371 0.046875 24.9996 0.046875C24.5621 0.046875 24.2076 0.401367 24.2076 0.838867V5.80762C24.2076 6.24512 24.5621 6.59961 24.9996 6.59961ZM28.7975 7.10059C29.2184 7.21094 29.6529 6.96191 29.7662 6.53906L31.0504 1.73926C31.1637 1.31836 30.9117 0.883789 30.4908 0.770508C30.067 0.660156 29.6353 0.90918 29.5221 1.33203L28.2359 6.13086C28.1246 6.55176 28.3736 6.98633 28.7975 7.10059ZM35.61 2.89258C35.233 2.67383 34.7486 2.80078 34.5299 3.18066L32.0465 7.48242C31.8277 7.86133 31.9547 8.34375 32.3346 8.5625C32.7115 8.78418 33.1959 8.6543 33.4146 8.27734L35.898 3.97266C36.1168 3.59277 35.9898 3.11133 35.61 2.89258ZM20.233 6.53809C20.3463 6.96191 20.7779 7.21094 21.2018 7.09961C21.6227 6.98633 21.8746 6.55176 21.7613 6.13086L20.4742 1.33105C20.3639 0.907227 19.9293 0.658203 19.5084 0.769531C19.0846 0.882812 18.8355 1.31738 18.9469 1.73828L20.233 6.53809ZM17.6637 8.56152C18.0396 8.34277 18.1705 7.86133 17.9518 7.48144L15.4654 3.17969C15.2467 2.80078 14.7652 2.67285 14.3853 2.8916C14.0094 3.11035 13.8785 3.5918 14.0973 3.97168L16.5836 8.27637C16.8033 8.65332 17.2848 8.7832 17.6637 8.56152ZM46.024 16.2295L41.7945 12.0029C41.568 11.7764 41.1998 11.7764 40.9752 12.0029L36.7457 16.2295C36.5768 16.4014 36.527 16.6416 36.6187 16.8633C36.7105 17.082 36.9146 17.2207 37.1559 17.2207H38.7086C39.0269 17.2207 39.2867 17.4805 39.2867 17.7988V30.8789C39.2867 31.1973 39.5465 31.457 39.8648 31.457H42.9019C43.2203 31.457 43.4801 31.1973 43.4801 30.8789V17.7988C43.4801 17.4805 43.7398 17.2207 44.0611 17.2207H45.6139C45.8521 17.2207 46.0572 17.082 46.148 16.8633C46.2398 16.6426 46.193 16.4014 46.024 16.2295ZM9.02402 12.0029C8.79746 11.7764 8.42929 11.7764 8.20468 12.0029L3.97519 16.2295C3.80625 16.4014 3.75937 16.6416 3.85019 16.8633C3.94199 17.082 4.14609 17.2207 4.38437 17.2207H5.93711C6.25546 17.2207 6.51523 17.4805 6.51523 17.7988V30.8789C6.51523 31.1973 6.775 31.457 7.09336 31.457H10.1305C10.4518 31.457 10.7115 31.1973 10.7115 30.8789V17.7988C10.7115 17.4805 10.9713 17.2207 11.2896 17.2207H12.8424C13.0807 17.2207 13.2857 17.082 13.3766 16.8633C13.4684 16.6416 13.4205 16.4014 13.2516 16.2295L9.02402 12.0029Z" fill="#600004"></path></svg> 