<?xml version="1.0" encoding="UTF-8"?> <svg xmlns="http://www.w3.org/2000/svg" width="36" height="36" viewBox="6 6 24 24" fill="none"><path d="M10.125 13.5H14.625V27H10.125V13.5Z" fill="white"></path><path d="M12.375 7.875C13.6176 7.875 14.625 8.88236 14.625 10.125C14.625 11.3676 13.6176 12.375 12.375 12.375C11.1324 12.375 10.125 11.3676 10.125 10.125C10.125 8.88236 11.1324 7.875 12.375 7.875Z" fill="white"></path><path d="M18 13.5H22.125V15.375H22.182C22.7554 14.2875 24.126 13.3125 26.25 13.3125C29.8125 13.3125 30.375 15.6563 30.375 19.125V27H25.875V20.4375C25.875 18.9 25.8469 16.875 23.9063 16.875C21.9375 16.875 21.6563 18.4125 21.6563 20.325V27H18V13.5Z" fill="white"></path></svg> 