<?xml version="1.0" encoding="UTF-8"?> <svg xmlns="http://www.w3.org/2000/svg" width="42" height="42" viewBox="0 0 42 42" fill="none"><g clip-path="url(#clip0_365_503)"><path fill-rule="evenodd" clip-rule="evenodd" d="M12.7953 14.0984C11.7866 14.0984 10.9746 13.2618 10.9746 12.2776C10.9746 11.2689 11.7866 10.4569 12.7953 10.4569C13.8041 10.4569 14.6161 11.2689 14.6161 12.2776C14.6161 13.2618 13.8041 14.0984 12.7953 14.0984ZM18.2576 14.0984C17.2488 14.0984 16.4368 13.2618 16.4368 12.2776C16.4368 11.2689 17.2488 10.4569 18.2576 10.4569C19.2663 10.4569 20.0783 11.2689 20.0783 12.2776C20.0783 13.2618 19.2663 14.0984 18.2576 14.0984ZM23.7444 14.0984C22.7356 14.0984 21.9236 13.2618 21.9236 12.2776C21.9236 11.2689 22.7356 10.4569 23.7444 10.4569C24.7286 10.4569 25.5651 11.2689 25.5651 12.2776C25.5651 13.2618 24.7286 14.0984 23.7444 14.0984ZM29.2066 14.0984C28.1978 14.0984 27.3859 13.2618 27.3859 12.2776C27.3859 11.2689 28.1978 10.4569 29.2066 10.4569C30.2154 10.4569 31.0273 11.2689 31.0273 12.2776C31.0273 13.2618 30.2154 14.0984 29.2066 14.0984ZM18.2576 19.7082C17.2488 19.7082 16.4368 18.8717 16.4368 17.8875C16.4368 16.8787 17.2488 16.0421 18.2576 16.0421C19.2663 16.0421 20.0783 16.8787 20.0783 17.8875C20.0783 18.8717 19.2663 19.7082 18.2576 19.7082ZM23.7444 19.7082C22.7356 19.7082 21.9236 18.8717 21.9236 17.8875C21.9236 16.8787 22.7356 16.0421 23.7444 16.0421C24.7286 16.0421 25.5651 16.8787 25.5651 17.8875C25.5651 18.8717 24.7286 19.7082 23.7444 19.7082ZM20.9887 25.2935C19.9799 25.2935 19.1679 24.4815 19.1679 23.4727C19.1679 22.4885 19.9799 21.652 20.9887 21.652C21.9975 21.652 22.8094 22.4885 22.8094 23.4727C22.8094 24.4815 21.9975 25.2935 20.9887 25.2935Z" fill="white"></path><path fill-rule="evenodd" clip-rule="evenodd" d="M40.696 5.58521H39.1705H37.0053C37.1529 5.16693 37.2267 4.69944 37.2267 4.23195V1.20559C37.2267 1.03336 37.2021 0.861128 37.1529 0.713501H39.0229H40.696C41.4095 0.713501 42 1.27941 42 1.99294V4.30577C42 5.0193 41.4095 5.58521 40.696 5.58521ZM4.97012 5.58521H1.30404C0.59051 5.58521 0 5.0193 0 4.30577V1.99294C0 1.27941 0.59051 0.713501 1.30404 0.713501H4.8471C4.79789 0.861128 4.74868 1.03336 4.74868 1.20559V4.23195C4.74868 4.69944 4.8225 5.16693 4.97012 5.58521Z" fill="white"></path><path fill-rule="evenodd" clip-rule="evenodd" d="M32.897 7.75041H9.10439C7.16063 7.75041 5.58594 6.15111 5.58594 4.23195V1.20559C5.58594 0.934942 5.80738 0.713501 6.07803 0.713501H35.9234C36.194 0.713501 36.4155 0.934942 36.4155 1.20559V4.23195C36.4155 6.17571 34.8408 7.75041 32.897 7.75041Z" fill="white"></path><path fill-rule="evenodd" clip-rule="evenodd" d="M6.81641 36.1933L15.3542 21.1353C15.4526 20.9877 15.6002 20.8893 15.7971 20.8893C15.9693 20.8893 16.1415 20.9877 16.2154 21.1353L21.3823 30.239L25.8111 23.7434C25.9834 23.4728 26.4262 23.4728 26.6231 23.7434L35.0625 36.1933H6.81641Z" fill="white"></path><path fill-rule="evenodd" clip-rule="evenodd" d="M38.5302 41.2864H3.46872C2.2877 41.2864 1.32812 40.3269 1.32812 39.1458C1.32812 37.9648 2.2877 37.0052 3.46872 37.0052H38.5302C39.7113 37.0052 40.6462 37.9648 40.6462 39.1458C40.6462 40.3269 39.7113 41.2864 38.5302 41.2864Z" fill="white"></path></g><defs><clipPath id="clip0_365_503"><rect width="42" height="42" fill="white"></rect></clipPath></defs></svg> 