<?xml version="1.0" encoding="UTF-8"?> <svg xmlns="http://www.w3.org/2000/svg" width="42" height="42" viewBox="0 0 42 42" fill="none"><path fill-rule="evenodd" clip-rule="evenodd" d="M35.6074 36.892C35.9479 36.892 36.2744 36.7568 36.5151 36.5161C36.7558 36.2754 36.8911 35.9488 36.8911 35.6084V21.8272C36.8911 21.5998 37.0754 21.4154 37.3028 21.4154H40.352C40.5794 21.4154 40.7638 21.5998 40.7638 21.8272V35.6084C40.7638 36.976 40.2205 38.2875 39.2535 39.2545C38.2865 40.2215 36.975 40.7648 35.6074 40.7648H6.39074C5.02319 40.7648 3.71163 40.2215 2.74465 39.2545C1.77766 38.2875 1.23438 36.976 1.23438 35.6084V21.8272C1.23438 21.5998 1.41876 21.4154 1.64614 21.4154H4.69534C4.92272 21.4154 5.1071 21.5998 5.1071 21.8272V35.6084C5.1071 35.9488 5.24233 36.2754 5.48305 36.5161C5.72376 36.7568 6.05029 36.892 6.39074 36.892H35.6074ZM20.9991 31.4195C22.952 31.4195 24.5683 29.9672 24.8262 28.0847C25.0972 28.1054 25.3812 28.1179 25.6785 28.1209C27.2861 28.1368 28.1649 27.8294 29.1192 27.5078C29.9779 27.2184 30.9049 26.9188 32.6252 26.895C33.9951 26.876 34.958 27.125 35.7381 27.4294V35.6084C35.7381 35.6431 35.7244 35.6763 35.6998 35.7008C35.6754 35.7253 35.6421 35.7391 35.6074 35.7391H6.39074C6.35607 35.7391 6.3228 35.7253 6.29834 35.7008C6.2738 35.6763 6.26005 35.6431 6.26005 35.6084V27.4294C7.04018 27.125 8.00305 26.876 9.37299 26.895C11.0933 26.9188 12.0203 27.2184 12.879 27.5078C13.8332 27.8294 14.7121 28.1368 16.3197 28.1209C16.6169 28.1179 16.901 28.1054 17.172 28.0847C17.4298 29.9672 19.0462 31.4195 20.9991 31.4195ZM20.9991 35.0529C21.3172 35.0529 21.5756 34.7947 21.5756 34.4765V32.639C21.5756 32.3208 21.3172 32.0625 20.9991 32.0625C20.681 32.0625 20.4226 32.3208 20.4226 32.639V34.4765C20.4226 34.7947 20.681 35.0529 20.9991 35.0529ZM15.6983 32.042C15.4734 32.267 15.4734 32.6323 15.6983 32.8573C15.9233 33.0823 16.2886 33.0823 16.5136 32.8573L17.8128 31.558C18.0378 31.333 18.0378 30.9677 17.8128 30.7427C17.5879 30.5178 17.2226 30.5178 16.9976 30.7427L15.6983 32.042ZM26.2999 32.042L25.0005 30.7427C24.7755 30.5178 24.4102 30.5178 24.1853 30.7427C23.9603 30.9677 23.9603 31.333 24.1853 31.558L25.4846 32.8573C25.7096 33.0823 26.0749 33.0823 26.2999 32.8573C26.5248 32.6323 26.5248 32.267 26.2999 32.042ZM20.9991 28.283C21.3172 28.283 21.5756 28.0247 21.5756 27.7066V24.908C22.7947 25.1726 23.7092 26.2586 23.7092 27.5565C23.7092 29.0523 22.4948 30.2666 20.9991 30.2666C19.5034 30.2666 18.289 29.0523 18.289 27.5565C18.289 26.2586 19.2035 25.1726 20.4226 24.908V27.7066C20.4226 28.0247 20.681 28.283 20.9991 28.283ZM20.9991 18.372C21.3172 18.372 21.5756 18.6303 21.5756 18.9485V23.7979C21.3875 23.7698 21.195 23.7551 20.9991 23.7551C20.8032 23.7551 20.6107 23.7698 20.4226 23.7979V18.9485C20.4226 18.6303 20.681 18.372 20.9991 18.372ZM23.1517 12.9882V14.4629C23.1517 14.5371 23.1316 14.61 23.0936 14.6737L21.3528 17.5945C21.2785 17.7192 21.1442 17.7955 20.9991 17.7955C20.854 17.7955 20.7197 17.7192 20.6454 17.5945L18.9045 14.6737C18.8666 14.61 18.8465 14.5371 18.8465 14.4629V12.9882H23.1517ZM25.3846 9.46216V11.4235C25.3846 11.5327 25.3412 11.6374 25.264 11.7146C25.1868 11.7918 25.0821 11.8352 24.9729 11.8352H17.0253C16.9161 11.8352 16.8114 11.7918 16.7342 11.7146C16.6569 11.6374 16.6135 11.5327 16.6135 11.4235V9.46216H25.3846ZM27.3942 1.23535C27.6216 1.23535 27.806 1.41974 27.806 1.64712V7.89746C27.806 8.12492 27.6216 8.30922 27.3942 8.30922H14.604C14.3766 8.30922 14.1922 8.12492 14.1922 7.89746V1.64712C14.1922 1.41974 14.3766 1.23535 14.604 1.23535H27.3942ZM25.4846 22.2558C25.7096 22.0308 26.0749 22.0308 26.2999 22.2558C26.5248 22.4808 26.5248 22.846 26.2999 23.071L25.0005 24.3704C24.7755 24.5953 24.4102 24.5953 24.1853 24.3704C23.9603 24.1454 23.9603 23.78 24.1853 23.5551L25.4846 22.2558ZM28.9589 3.3995H39.3911C39.7552 3.3995 40.1043 3.54412 40.3617 3.80155C40.6192 4.05899 40.7638 4.40816 40.7638 4.77216V4.77241C40.7638 5.13641 40.6192 5.48559 40.3617 5.74302C40.1043 6.00046 39.7552 6.14507 39.3911 6.14507H28.9589V3.3995ZM16.5136 22.2558L17.8128 23.5551C18.0378 23.78 18.0378 24.1454 17.8128 24.3704C17.5879 24.5953 17.2226 24.5953 16.9976 24.3704L15.6983 23.071C15.4734 22.846 15.4734 22.4808 15.6983 22.2558C15.9233 22.0308 16.2886 22.0308 16.5136 22.2558ZM13.0393 3.3995V6.14507H2.60703C2.24295 6.14507 1.89386 6.00046 1.63642 5.74302C1.37899 5.48559 1.23438 5.13641 1.23438 4.77241V4.77216C1.23438 4.40816 1.37899 4.05899 1.63642 3.80155C1.89386 3.54412 2.24295 3.3995 2.60703 3.3995H13.0393Z" fill="white"></path></svg> 