<?xml version="1.0" encoding="UTF-8"?> <svg xmlns="http://www.w3.org/2000/svg" width="42" height="42" viewBox="0 0 42 42" fill="none"><path d="M10.1213 3.66486V1.14428C10.1213 0.781541 10.4143 0.488525 10.777 0.488525H29.5305C29.8933 0.488525 30.1863 0.781459 30.1863 1.14428V11.8127L31.5792 9.98733C31.7978 9.69899 32.2093 9.64551 32.4953 9.86412C32.7836 10.0827 32.8371 10.4943 32.6185 10.7826L30.0584 14.1403C30.0398 14.1659 30.0212 14.1891 29.9979 14.2124L29.9933 14.2171L29.9886 14.2218C29.9374 14.273 29.8793 14.3124 29.8189 14.3427L29.8142 14.345H29.8119C29.7212 14.3892 29.6258 14.4078 29.5305 14.4078C29.4352 14.4078 29.3399 14.3891 29.2492 14.345H29.2469L29.2422 14.3427C29.1817 14.3124 29.1236 14.2729 29.0725 14.2218L29.0678 14.2171L29.0631 14.2124C29.0399 14.1891 29.0213 14.1659 29.0027 14.1403L26.4425 10.7826C26.2216 10.4943 26.2774 10.0827 26.5658 9.86412C26.8518 9.64551 27.2633 9.69908 27.482 9.98733L28.8748 11.8127V1.79996H11.4327V3.66486C11.4327 4.0276 11.1397 4.32291 10.7769 4.32291C10.4142 4.32291 10.1213 4.0276 10.1213 3.66486ZM18.0041 21.0301L17.4622 20.4906C17.3344 20.3604 17.3111 20.1627 17.4111 20.0093C17.925 19.2094 18.2784 18.3397 18.4737 17.4398C18.5132 17.2607 18.669 17.1375 18.8527 17.1375H19.6154C19.813 17.1375 19.9781 16.9887 19.9991 16.7934C20.0758 16.1051 20.0758 15.4098 19.9991 14.7215C19.9781 14.5239 19.813 14.3774 19.6154 14.3774H18.8527C18.669 14.3774 18.5132 14.2519 18.4737 14.0728C18.2784 13.1729 17.9249 12.3033 17.4111 11.5034C17.3111 11.3499 17.3344 11.1523 17.4645 11.022L18.0017 10.4826C18.1435 10.3407 18.1552 10.1221 18.032 9.96633C17.818 9.69891 17.5878 9.44084 17.339 9.19434C17.0925 8.94554 16.8345 8.71536 16.567 8.50142C16.4113 8.37821 16.1904 8.38986 16.0508 8.52931L15.5114 9.06875C15.3812 9.19893 15.1835 9.22223 15.03 9.12223C14.2301 8.60839 13.3604 8.25492 12.4606 8.0596C12.2815 8.02006 12.156 7.86428 12.156 7.68053V6.91789C12.156 6.72019 12.0095 6.55515 11.8119 6.53423C11.1235 6.45745 10.4283 6.45745 9.73999 6.53423C9.54468 6.55515 9.39587 6.72028 9.39587 6.91789V7.68053C9.39587 7.8642 9.27266 8.02006 9.09129 8.0596C8.1937 8.25492 7.32171 8.60839 6.5242 9.12223C6.36843 9.22223 6.17073 9.19901 6.04055 9.06875L5.50341 8.52931C5.36157 8.38978 5.14066 8.37813 4.98718 8.50142C4.71976 8.71536 4.46169 8.94554 4.21519 9.19434C3.96639 9.44084 3.73621 9.69891 3.52227 9.96633C3.39906 10.1221 3.41062 10.343 3.55016 10.4826L4.0896 11.022C4.21978 11.1522 4.24078 11.3499 4.14308 11.5034C3.62916 12.3032 3.27577 13.1729 3.08045 14.0728C3.04091 14.2519 2.88513 14.3774 2.70146 14.3774H1.93874C1.74112 14.3774 1.576 14.5239 1.5527 14.7215C1.476 15.4098 1.476 16.1051 1.5527 16.7934C1.57591 16.9887 1.74104 17.1375 1.93874 17.1375H2.70146C2.88513 17.1375 3.04099 17.2607 3.08045 17.4421C3.27577 18.3397 3.62924 19.2093 4.14308 20.0092C4.24078 20.1627 4.21978 20.3603 4.0896 20.4905L3.55016 21.0301C3.41062 21.1719 3.39898 21.3905 3.52227 21.5463C3.63851 21.6928 3.7618 21.8346 3.88731 21.9764C4.25473 21.7463 4.6872 21.6137 5.14993 21.6137C5.29177 21.6137 5.4336 21.6277 5.57084 21.6509V21.0511C5.57084 20.0814 6.15449 19.2443 6.98694 18.8699C6.28935 18.0235 5.87082 16.9376 5.87082 15.7563C5.87082 13.0474 8.06819 10.8523 10.7772 10.8523C13.4862 10.8523 15.6813 13.0473 15.6813 15.7563C15.6813 17.6003 14.6651 19.2048 13.163 20.0419V23.1973C13.263 23.181 13.3653 23.1694 13.4676 23.1625C14.0094 22.9671 14.5326 22.709 15.0302 22.3905C15.1837 22.2928 15.3813 22.3137 15.5115 22.4439L16.051 22.9835C16.1905 23.123 16.4114 23.1346 16.5672 23.0114C16.8346 22.7974 17.0927 22.5672 17.3392 22.3184C17.588 22.072 17.8182 21.8139 18.0321 21.5464C18.1553 21.3907 18.1438 21.172 18.0042 21.0302L18.0041 21.0301ZM13.5836 24.146C12.8117 24.146 12.1792 24.7785 12.1792 25.5505V17.3957C12.1792 16.6237 11.5467 15.9913 10.7724 15.9913C9.99798 15.9913 9.36552 16.6237 9.36552 17.3957V21.0511C9.36552 20.2791 8.73306 19.6467 7.96106 19.6467C7.18907 19.6467 6.55423 20.2791 6.55423 21.0511V24.0043C6.55423 23.2323 5.92177 22.5975 5.14977 22.5975C4.37777 22.5975 3.74293 23.2323 3.74293 24.0043V26.3947C3.74293 25.6204 3.11047 24.9879 2.3361 24.9879C1.56172 24.9879 0.931641 25.6204 0.931641 26.3947V30.2384C0.931641 32.566 2.08032 34.6402 3.83825 35.9214V37.6398H12.0838V35.9214C13.8417 34.6402 14.9904 32.566 14.9904 30.2384V25.5506C14.9904 24.7786 14.3579 24.1461 13.5836 24.1461L13.5836 24.146ZM2.01298 41.5114H13.9091V38.4537H2.01298V41.5114ZM40.9965 29.7757C40.9686 30.0199 40.764 30.2035 40.5175 30.2035H39.5689C39.341 30.2012 39.1479 30.357 39.0991 30.5802C38.855 31.6986 38.4155 32.7799 37.7784 33.7728C37.6551 33.9658 37.6807 34.2122 37.8435 34.3727L38.5132 35.0447C38.6876 35.2168 38.7015 35.4912 38.5481 35.6841C38.283 36.0167 37.997 36.3375 37.6877 36.6445C37.3807 36.9537 37.0598 37.2398 36.7274 37.5048C36.5367 37.6583 36.2623 37.6443 36.0879 37.4699L35.4159 36.8002C35.2555 36.6375 35.009 36.6119 34.816 36.7351C33.8231 37.3722 32.7419 37.8118 31.6258 38.0559C31.4002 38.1047 31.2468 38.2977 31.2468 38.5256V39.4743C31.2468 39.7208 31.0631 39.9255 30.8189 39.951C29.9632 40.0487 29.0982 40.0487 28.2425 39.951C27.9983 39.9254 27.8146 39.7208 27.8146 39.4743V38.5256C27.8146 38.2977 27.6611 38.1047 27.4356 38.0559C26.3195 37.8117 25.2382 37.3722 24.2453 36.7351C24.0523 36.6119 23.8059 36.6375 23.6454 36.8002L22.9734 37.4699C22.799 37.6443 22.5246 37.6583 22.334 37.5048C22.0014 37.2398 21.6806 36.9537 21.3714 36.6445C21.0644 36.3375 20.7784 36.0167 20.5133 35.6841C20.3575 35.4911 20.3738 35.2167 20.5482 35.0447L21.2179 34.3727C21.3806 34.2122 21.4062 33.9658 21.283 33.7728C20.6459 32.7799 20.2041 31.6986 19.9622 30.5802C19.9134 30.3569 19.7204 30.2035 19.4925 30.2035H18.5438C18.2973 30.2035 18.0927 30.0199 18.0649 29.7757C17.9695 28.9199 17.9695 28.0549 18.0649 27.1992C18.0927 26.955 18.2974 26.7713 18.5438 26.7713H19.4925C19.7204 26.7713 19.9134 26.6156 19.9622 26.3923C20.2041 25.2762 20.6459 24.1925 21.283 23.1997C21.4062 23.009 21.3807 22.7626 21.2179 22.5998L20.5482 21.9301C20.3738 21.7557 20.3575 21.4813 20.5133 21.2907C20.7784 20.9581 21.0644 20.6373 21.3714 20.3279C21.6806 20.021 22.0015 19.735 22.334 19.4676C22.5246 19.3141 22.799 19.3304 22.9734 19.5048L23.6454 20.1745C23.8059 20.3372 24.0524 20.3628 24.2453 20.2395C25.2359 19.6024 26.3195 19.1606 27.4356 18.9187C27.6612 18.8699 27.8146 18.6769 27.8146 18.449V17.5003C27.8146 17.2539 27.9983 17.0492 28.2425 17.0213C29.0982 16.926 29.9632 16.926 30.8189 17.0213C31.063 17.0492 31.2468 17.2539 31.2468 17.5003V18.449C31.2468 18.6769 31.4003 18.8699 31.6258 18.9187C32.7419 19.1606 33.8231 19.6024 34.816 20.2395C35.0091 20.3627 35.2555 20.3372 35.4159 20.1745L36.0879 19.5048C36.2623 19.3304 36.5344 19.3141 36.7274 19.4676C37.0599 19.735 37.3807 20.021 37.6877 20.3279C37.997 20.6373 38.283 20.9581 38.5481 21.2907C38.7015 21.4813 38.6876 21.7557 38.5132 21.9301L37.8435 22.5998C37.6807 22.7626 37.6551 23.0091 37.7784 23.1997C38.4155 24.1926 38.8549 25.2762 39.0991 26.3923C39.1479 26.6155 39.341 26.7713 39.5689 26.7713H40.5175C40.764 26.7713 40.9686 26.955 40.9965 27.1992C41.0918 28.0549 41.0918 28.9199 40.9965 29.7757ZM35.6274 28.4874C35.6274 25.1205 32.8975 22.3905 29.5305 22.3905C26.1636 22.3905 23.4336 25.1205 23.4336 28.4874C23.4336 31.8544 26.1636 34.5844 29.5305 34.5844C32.8975 34.5844 35.6274 31.8545 35.6274 28.4874ZM32.0232 25.9413L28.6701 29.292L27.0378 27.662C26.7192 27.341 26.1983 27.341 25.8797 27.662C25.5588 27.9806 25.5588 28.5014 25.8797 28.8223L28.091 31.0337C28.4096 31.3522 28.9305 31.3522 29.2514 31.0337L33.1812 27.1016C33.5021 26.7807 33.5021 26.2622 33.1812 25.9413C32.8626 25.6204 32.3417 25.6204 32.0231 25.9413H32.0232Z" fill="white"></path></svg> 