<?xml version="1.0" encoding="UTF-8"?> <svg xmlns="http://www.w3.org/2000/svg" width="70" height="70" viewBox="0 0 70 70" fill="none"><rect width="70" height="70" rx="15.2174" fill="#600004"></rect><path fill-rule="evenodd" clip-rule="evenodd" d="M37.4124 18.6989V51.3009C37.4124 52.0838 36.7778 52.7184 35.9949 52.7184H34.0061C33.2232 52.7184 32.5886 52.0838 32.5886 51.3009V18.6989C32.5886 17.916 33.2232 17.2814 34.0061 17.2814H35.9949C36.7778 17.2814 37.4124 17.916 37.4124 18.6989ZM20.4258 27.7961L31.1784 33.1485V48.4403L20.8178 43.26C20.5777 43.1399 20.4258 42.8947 20.4258 42.6261V27.7961ZM40.5583 45.9879L43.0942 44.7201C43.4439 44.5451 43.8698 44.6872 44.0449 45.0369C44.2199 45.3869 44.0778 45.8129 43.7281 45.9879L41.1922 47.2557C40.8425 47.4307 40.4166 47.2886 40.2415 46.9385C40.0665 46.5889 40.2086 46.1629 40.5583 45.9879ZM45.6298 43.4523L48.1653 42.1842C48.5153 42.0095 48.9413 42.1513 49.1163 42.5013C49.2913 42.851 49.1492 43.2773 48.7992 43.4523L46.2636 44.7201C45.9136 44.8948 45.4876 44.753 45.3126 44.403C45.138 44.0533 45.2797 43.627 45.6298 43.4523ZM49.5752 40.2207C49.5752 40.612 49.2577 40.9294 48.8665 40.9294C48.4752 40.9294 48.1577 40.612 48.1577 40.2207V37.3857C48.1577 36.9945 48.4752 36.677 48.8665 36.677C49.2577 36.677 49.5752 36.9945 49.5752 37.3857V40.2207ZM49.5752 34.5508C49.5752 34.942 49.2577 35.2595 48.8665 35.2595C48.4752 35.2595 48.1577 34.942 48.1577 34.5508V31.7158C48.1577 31.3246 48.4752 31.0071 48.8665 31.0071C49.2577 31.0071 49.5752 31.3246 49.5752 31.7158V34.5508ZM38.8226 31.603L40.9427 30.5432C41.2924 30.3681 41.7183 30.5103 41.8933 30.8603C42.0683 31.21 41.9262 31.6363 41.5766 31.8109L39.0407 33.0791C38.9701 33.1141 38.8967 33.1366 38.8226 33.1471V31.603ZM31.1784 31.573L21.1425 26.5775L31.1784 21.5595V31.573ZM43.4782 29.2754L46.0138 28.0076C46.3638 27.8326 46.7898 27.9747 46.9648 28.3247C47.1394 28.6744 46.9977 29.1004 46.6477 29.2754L44.1121 30.5432C43.7621 30.7182 43.3361 30.5761 43.1611 30.2264C42.9861 29.8764 43.1282 29.4504 43.4782 29.2754ZM49.5752 28.8809C49.5752 29.2721 49.2577 29.5896 48.8665 29.5896C48.4752 29.5896 48.1577 29.2721 48.1577 28.8809V27.8116L47.3618 27.4139C47.0118 27.2389 46.8701 26.8129 47.0447 26.4629C47.2197 26.1132 47.6457 25.9711 47.9957 26.1461C48.7334 26.5149 49.1832 26.7398 49.1832 26.7398C49.4233 26.8599 49.5752 27.1054 49.5752 27.3737V28.8809ZM44.8263 26.1461L42.2904 24.878C41.9407 24.7033 41.7986 24.277 41.9736 23.9273C42.1486 23.5773 42.5746 23.4355 42.9243 23.6102L45.4602 24.878C45.8098 25.053 45.9519 25.4793 45.7769 25.829C45.6019 26.179 45.1759 26.3207 44.8263 26.1461ZM38.8226 21.5595L40.3887 22.3424C40.7387 22.5174 40.8805 22.9434 40.7058 23.2934C40.5308 23.6431 40.1049 23.7852 39.7548 23.6102L38.8226 23.1441V21.5595Z" fill="white"></path></svg> 