<?xml version="1.0" encoding="UTF-8"?> <svg xmlns="http://www.w3.org/2000/svg" width="70" height="70" viewBox="0 0 70 70" fill="none"><rect width="70" height="70" rx="15.2174" fill="#600004"></rect><path fill-rule="evenodd" clip-rule="evenodd" d="M45.8341 17.7021H47.2463C48.024 17.7021 48.6583 18.3366 48.6583 19.1142V44.3669H51.6154C52.1828 44.3668 52.5019 45.0163 52.1549 45.4654L47.0795 52.0331C46.8068 52.3862 46.2737 52.3862 46.0009 52.0331L40.9257 45.4654C40.5787 45.0163 40.8979 44.3666 41.4654 44.3669H44.4221V19.1142C44.4221 18.3365 45.0565 17.7021 45.8341 17.7021ZM22.7558 17.7021H24.1678C24.9454 17.7021 25.5799 18.3366 25.5799 19.1142V27.6219H28.5368C29.1043 27.6219 29.4233 28.2714 29.0764 28.7204L24.0011 35.2882C23.7284 35.6412 23.1952 35.6412 22.9224 35.2882L17.8472 28.7204C17.5001 28.2713 17.8194 27.6216 18.3868 27.622H21.3436V19.1142C21.3436 18.3365 21.9781 17.7021 22.7558 17.7021ZM34.2951 17.7021C33.5173 17.7021 32.8829 18.3366 32.8829 19.1142V35.9944H29.9261C29.3587 35.9941 29.0394 36.6438 29.3865 37.0928L34.4617 43.6606C34.7345 44.0136 35.2677 44.0136 35.5404 43.6606L40.6157 37.0928C40.9626 36.6438 40.6436 35.9943 40.0761 35.9944H37.1192C37.1192 30.3225 37.1192 24.786 37.1192 19.1141C37.1192 18.3365 36.4847 17.702 35.7071 17.702L34.2951 17.7021Z" fill="white"></path></svg> 