<?xml version="1.0" encoding="UTF-8"?> <svg xmlns="http://www.w3.org/2000/svg" width="60" height="60" viewBox="0 0 60 60" fill="none"><path d="M29.4479 1.0401C29.6829 0.597455 30.3171 0.597456 30.5521 1.0401L34.2035 7.91968C34.3859 8.26324 34.8344 8.35858 35.1407 8.11888L41.2747 3.31927C41.6694 3.01046 42.2488 3.26842 42.2834 3.76836L42.821 11.5384C42.8479 11.9264 43.2188 12.1959 43.5962 12.1015L51.152 10.2118C51.6382 10.0902 52.0625 10.5615 51.8908 11.0323L49.2216 18.3492C49.0883 18.7146 49.3176 19.1117 49.7007 19.179L57.3719 20.5259C57.8655 20.6125 58.0615 21.2157 57.7131 21.5759L52.2986 27.1746C52.0282 27.4542 52.0761 27.9102 52.3988 28.1275L58.859 32.4781C59.2746 32.758 59.2083 33.3888 58.7435 33.5762L51.52 36.4885C51.1592 36.634 51.0175 37.0701 51.2239 37.3998L55.356 44.0019C55.6219 44.4266 55.3048 44.9759 54.804 44.958L47.0204 44.6805C46.6316 44.6667 46.3248 45.0074 46.3792 45.3926L47.4688 53.1046C47.5389 53.6008 47.0258 53.9735 46.5756 53.7535L39.5778 50.3341C39.2283 50.1634 38.8094 50.3499 38.7024 50.7239L36.5611 58.2123C36.4233 58.6941 35.8029 58.826 35.4811 58.4418L30.4791 52.4718C30.2293 52.1736 29.7707 52.1736 29.5209 52.4718L24.5189 58.4418C24.1971 58.826 23.5767 58.6941 23.4389 58.2123L21.2976 50.7239C21.1906 50.3499 20.7717 50.1634 20.4222 50.3341L13.4244 53.7535C12.9742 53.9736 12.4611 53.6008 12.5312 53.1046L13.6208 45.3926C13.6752 45.0074 13.3684 44.6667 12.9796 44.6805L5.19602 44.958C4.6952 44.9759 4.37809 44.4266 4.64396 44.0019L8.7761 37.3998C8.98246 37.0701 8.84077 36.634 8.48002 36.4885L1.25645 33.5762C0.791672 33.3888 0.725378 32.758 1.14104 32.4781L7.60124 28.1275C7.92387 27.9102 7.9718 27.4542 7.7014 27.1746L2.2869 21.5759C1.93852 21.2157 2.13451 20.6125 2.62809 20.5259L10.2993 19.179C10.6824 19.1117 10.9117 18.7146 10.7784 18.3492L8.1092 11.0323C7.93746 10.5615 8.36184 10.0902 8.848 10.2118L16.4038 12.1015C16.7812 12.1959 17.1521 11.9264 17.179 11.5384L17.7166 3.76836C17.7512 3.26842 18.3306 3.01046 18.7253 3.31927L24.8593 8.11888C25.1656 8.35858 25.6141 8.26324 25.7965 7.91967L29.4479 1.0401Z" fill="#F5F5F9"></path><g clip-path="url(#clip0_1867_3464)"><path d="M30.0022 22.4531C29.9858 22.4531 29.9692 22.4532 29.9527 22.4535C29.1667 22.4666 28.4329 22.7849 27.8863 23.3499C27.3397 23.9148 27.046 24.6589 27.059 25.4448C27.0856 27.0508 28.4005 28.339 30.0008 28.3388C30.0171 28.3388 30.0338 28.3387 30.0503 28.3384C30.8363 28.3254 31.5701 28.0071 32.1167 27.4421C32.6632 26.8771 32.957 26.1331 32.944 25.3471C32.9174 23.7411 31.6025 22.4531 30.0022 22.4531ZM31.1799 26.5359C30.8754 26.8507 30.4666 27.028 30.0287 27.0353C29.1235 27.0499 28.3772 26.3271 28.3622 25.4232C28.3549 24.9853 28.5186 24.5709 28.8231 24.2561C29.1275 23.9413 29.5363 23.764 29.9742 23.7567C29.9835 23.7566 29.9927 23.7565 30.0018 23.7565C30.8933 23.7565 31.6258 24.4741 31.6407 25.3688C31.648 25.8067 31.4844 26.2211 31.1799 26.5359Z" fill="black"></path><path d="M25.2015 31.6602C25.1851 31.6602 25.1684 31.6603 25.1519 31.6605C24.366 31.6736 23.6322 31.9919 23.0856 32.5569C22.539 33.1219 22.2452 33.8659 22.2582 34.6518C22.2849 36.2578 23.5997 37.546 25.2001 37.5458C25.2164 37.5458 25.2331 37.5457 25.2496 37.5455C26.872 37.5185 28.1702 36.1766 28.1432 34.5542C28.1166 32.9482 26.8018 31.6602 25.2015 31.6602ZM25.228 36.2423C24.3251 36.2572 23.5765 35.5341 23.5615 34.6302C23.5542 34.1923 23.718 33.7778 24.0224 33.4631C24.3269 33.1483 24.7357 32.971 25.1736 32.9637C25.1828 32.9636 25.192 32.9635 25.2012 32.9635C26.0926 32.9635 26.8252 33.6811 26.8401 34.5758C26.8551 35.4797 26.1319 36.2273 25.228 36.2423Z" fill="black"></path><path d="M39.9953 34.522C39.9482 31.6829 37.6236 29.4057 34.7948 29.4057C34.7657 29.4057 34.7364 29.406 34.7072 29.4065C34.0091 29.4181 33.3344 29.5659 32.7132 29.8368C33.0826 29.6098 33.426 29.3349 33.7354 29.0151C34.7015 28.0163 35.2209 26.7011 35.1979 25.3116C35.1509 22.4725 32.8263 20.1953 29.9974 20.1953C29.9683 20.1953 29.939 20.1955 29.9097 20.1961C28.5203 20.2191 27.2229 20.7819 26.2568 21.7807C25.2906 22.7794 24.7712 24.0947 24.7942 25.4842C24.825 27.337 25.8258 28.9502 27.3035 29.8476C26.6229 29.5462 25.8792 29.3935 25.1124 29.4065C23.723 29.4296 22.4256 29.9923 21.4594 30.9911C20.4932 31.9899 19.9738 33.3052 19.9968 34.6947C20.044 37.5338 22.3685 39.8109 25.1974 39.8109C25.2265 39.8109 25.2558 39.8107 25.285 39.8102C26.6745 39.7871 27.9719 39.2244 28.938 38.2256C29.3933 37.7549 29.7493 37.2139 29.9962 36.628C30.2651 37.267 30.6629 37.8511 31.1762 38.3477C32.1538 39.2933 33.4344 39.8109 34.7911 39.8109C34.8205 39.8109 34.8502 39.8107 34.8798 39.8102C36.2692 39.7871 37.5666 39.2244 38.5327 38.2256C39.499 37.2267 40.0184 35.9114 39.9953 34.522ZM26.0974 25.4626C26.0802 24.4212 26.4695 23.4355 27.1936 22.6868C27.9177 21.9382 28.89 21.5165 29.9314 21.4992C29.9535 21.4988 29.9751 21.4987 29.9971 21.4987C32.1171 21.4987 33.8595 23.2055 33.8948 25.3332C33.9121 26.3746 33.5228 27.3603 32.7987 28.109C32.0746 28.8576 31.1022 29.2793 30.0608 29.2966C30.0388 29.297 30.0171 29.2971 29.9951 29.2971C27.8751 29.2971 26.1328 27.5903 26.0974 25.4626ZM28.0013 37.3193C27.2772 38.0679 26.3049 38.4897 25.2634 38.5069C25.2414 38.5073 25.2197 38.5075 25.1977 38.5075C23.0777 38.5075 21.3353 36.8006 21.3 34.6729C21.2828 33.6316 21.672 32.6458 22.3962 31.8972C23.1203 31.1486 24.0926 30.7269 25.134 30.7095C25.1561 30.7092 25.1778 30.709 25.1997 30.709C27.3197 30.709 29.0621 32.4158 29.0974 34.5435C29.1147 35.5849 28.7254 36.5707 28.0013 37.3193ZM29.996 32.5887C29.7271 31.9497 29.3293 31.3655 28.816 30.869C28.5328 30.5951 28.2243 30.3572 27.896 30.1573C28.539 30.4422 29.2493 30.6005 29.9949 30.6005C30.024 30.6005 30.0533 30.6003 30.0825 30.5997C30.7805 30.5881 31.4552 30.4403 32.0763 30.1695C31.707 30.3965 31.3635 30.6713 31.0542 30.9911C30.5989 31.4617 30.2428 32.0028 29.996 32.5887ZM37.5961 37.3193C36.872 38.0679 35.8996 38.4897 34.8582 38.5069C34.8361 38.5073 34.8145 38.5075 34.7925 38.5075C32.6725 38.5075 30.9301 36.8006 30.8948 34.6729C30.8776 33.6316 31.2668 32.6458 31.9909 31.8972C32.715 31.1486 33.6874 30.7269 34.7288 30.7095C34.7509 30.7092 34.7725 30.709 34.7945 30.709C36.9145 30.709 38.6569 32.4158 38.6922 34.5435C38.7094 35.5849 38.3202 36.5707 37.5961 37.3193Z" fill="black"></path><path d="M34.8029 31.6602C34.7866 31.6602 34.7699 31.6603 34.7534 31.6605C33.131 31.6875 31.8328 33.0294 31.8598 34.6518C31.8864 36.2578 33.2012 37.546 34.8015 37.5458C34.8179 37.5458 34.8346 37.5457 34.8511 37.5455C35.637 37.5324 36.3708 37.2141 36.9174 36.6491C37.464 36.0841 37.7578 35.3401 37.7448 34.5542C37.7181 32.9482 36.4033 31.6602 34.8029 31.6602ZM35.9807 35.7429C35.6762 36.0577 35.2674 36.235 34.8295 36.2423C33.9262 36.2573 33.178 35.5341 33.163 34.6302C33.148 33.7264 33.8712 32.9787 34.7751 32.9637C34.7843 32.9636 34.7935 32.9635 34.8026 32.9635C35.6941 32.9635 36.4267 33.6811 36.4416 34.5758C36.4488 35.0136 36.2851 35.4282 35.9807 35.7429Z" fill="black"></path></g><defs><clipPath id="clip0_1867_3464"><rect width="20" height="20" fill="white" transform="translate(20 20)"></rect></clipPath></defs></svg> 