<?xml version="1.0" encoding="UTF-8"?> <svg xmlns="http://www.w3.org/2000/svg" width="70" height="70" viewBox="0 0 70 70" fill="none"><rect width="70" height="70" rx="15.2174" fill="#600004"></rect><g clip-path="url(#clip0_1254_3314)"><path d="M29.3481 44.9268C28.6495 44.9268 27.9989 44.6135 27.5634 44.0674L26.0347 42.1504L24.6896 41.5026L21.1779 48.5658C21.0019 48.92 21.0217 49.3401 21.2304 49.6761C21.4386 50.0113 21.8053 50.2152 22.1999 50.2152H22.2024L25.4599 50.2079L27.4201 52.8094C27.6369 53.0971 27.9752 53.2639 28.3315 53.2638C28.3664 53.2638 28.4015 53.2623 28.4367 53.259C28.8306 53.2225 29.1775 52.9848 29.3536 52.6306L32.9164 45.4645L31.8 44.9268H29.3481Z" fill="white"></path><path d="M48.8206 48.5658L45.3089 41.5026L43.9639 42.1504L42.4351 44.0674C41.9996 44.6135 41.3492 44.9268 40.6505 44.9268H38.1985L37.082 45.4645L40.6449 52.6306C40.821 52.9848 41.168 53.2225 41.5618 53.259C41.597 53.2622 41.6321 53.2638 41.667 53.2638C42.0232 53.2638 42.3616 53.0971 42.5783 52.8094L44.5386 50.2079L47.796 50.2152H47.7986C48.1931 50.2152 48.5598 50.0114 48.7681 49.6761C48.9768 49.3401 48.9967 48.92 48.8206 48.5658Z" fill="white"></path><path d="M40.6518 43.7852C40.9991 43.7852 41.3276 43.627 41.5441 43.3555L43.2353 41.2348L45.6791 40.0579C45.9921 39.9072 46.2193 39.6222 46.2966 39.2836L46.9002 36.6391L48.5914 34.5184C48.808 34.2469 48.8891 33.8915 48.8118 33.5529L48.2083 30.9085L48.8118 28.264C48.889 27.9253 48.808 27.57 48.5914 27.2984L46.9002 25.1778L46.2966 22.5333C46.2194 22.1947 45.9921 21.9097 45.6791 21.759L43.2353 20.5821L41.5441 18.4614C41.3275 18.1898 40.9991 18.0317 40.6518 18.0317H37.9394L35.4955 16.8547C35.1825 16.704 34.818 16.704 34.505 16.8547L32.0612 18.0316H29.3488C29.0015 18.0316 28.673 18.1897 28.4565 18.4613L26.7653 20.5819L24.3215 21.7588C24.0085 21.9096 23.7813 22.1945 23.704 22.5331L23.1003 25.1776L21.4091 27.2982C21.1926 27.5698 21.1115 27.9252 21.1888 28.2638L21.7923 30.9083L21.1888 33.5527C21.1116 33.8913 21.1926 34.2467 21.4091 34.5183L23.1003 36.639L23.704 39.2834C23.7812 39.622 24.0085 39.907 24.3215 40.0577L26.7653 41.2346L28.4565 43.3553C28.673 43.6269 29.0015 43.785 29.3488 43.785H32.0612L34.505 44.9619C34.6615 45.0372 34.8309 45.0749 35.0002 45.0749C35.1696 45.0749 35.339 45.0372 35.4954 44.9619L37.9392 43.785H40.6517L40.6518 43.7852ZM35.0003 40.8948C29.4938 40.8948 25.0139 36.4149 25.0139 30.9084C25.0139 25.4019 29.4938 20.922 35.0003 20.922C40.5068 20.922 44.9867 25.4019 44.9867 30.9084C44.9867 36.4149 40.5068 40.8948 35.0003 40.8948Z" fill="white"></path><path d="M35.0014 22.0618C30.1241 22.0618 26.1562 26.0297 26.1562 30.9069C26.1562 35.7841 30.1241 39.752 35.0014 39.752C39.8786 39.752 43.8465 35.7841 43.8465 30.9069C43.8465 26.0297 39.8786 22.0618 35.0014 22.0618ZM35.2377 33.5255C35.0161 33.7471 34.7239 33.8598 34.4304 33.8598C34.1793 33.8598 33.9272 33.7773 33.7177 33.6097L30.8645 31.3271L32.2904 29.5448L34.346 31.1893L37.6182 27.917L39.2322 29.531L35.2377 33.5256V33.5255Z" fill="white"></path></g><defs><clipPath id="clip0_1254_3314"><rect width="36.5217" height="36.5217" fill="white" transform="translate(16.7383 16.7391)"></rect></clipPath></defs></svg> 