<?xml version="1.0" encoding="UTF-8"?> <svg xmlns="http://www.w3.org/2000/svg" width="50" height="50" viewBox="0 0 50 50" fill="none"><g clip-path="url(#clip0_842_2025)"><path d="M46.9418 31.2142V28.0584H32.3939C32.3939 32.1418 29.0837 35.4522 25.0002 35.4522C20.9167 35.4522 17.6064 32.1419 17.6064 28.0584H3.05859V31.2142L9.37578 31.8831C9.76982 33.4984 10.4078 35.0181 11.2485 36.4009L7.25361 41.342L11.7166 45.805L16.6577 41.8101C18.0405 42.6508 19.5603 43.2888 21.1755 43.6828L21.8444 50H28.156L28.8249 43.6828C30.4401 43.2888 31.9599 42.6508 33.3427 41.8101L38.2838 45.805L42.7468 41.342L38.7519 36.4009C39.5926 35.0181 40.2306 33.4984 40.6246 31.8831L46.9418 31.2142Z" fill="#600004"></path><path d="M24.9993 0C21.8744 0 19.332 2.54238 19.332 5.66729C19.332 8.79219 21.8744 11.3345 24.9993 11.3345C28.1242 11.3345 30.6666 8.79219 30.6666 5.66729C30.6666 2.54238 28.1242 0 24.9993 0Z" fill="#600004"></path><path d="M31.032 12.9023H18.9643C16.186 12.9024 13.9258 15.1626 13.9258 17.9408V25.1297H36.0705V17.9408C36.0705 15.1626 33.8103 12.9023 31.032 12.9023Z" fill="#600004"></path><path d="M12.9792 2.61719C10.1798 2.61719 7.90234 4.89473 7.90234 7.69404C7.90234 10.4709 10.1437 12.7329 12.9121 12.7691C14.0586 11.4281 15.6405 10.471 17.4378 10.1199C17.8317 9.39873 18.0561 8.57217 18.0561 7.69404C18.0561 4.89463 15.7786 2.61719 12.9792 2.61719Z" fill="#600004"></path><path d="M7.57217 14.1758C5.0834 14.1758 3.05859 16.2005 3.05859 18.6894V25.1293H10.9981V17.9403C10.9981 16.5795 11.3417 15.2976 11.9457 14.1758H7.57217Z" fill="#600004"></path><path d="M37.0222 2.61719C34.2228 2.61719 31.9453 4.89473 31.9453 7.69404C31.9453 8.57207 32.1695 9.39873 32.5635 10.1199C34.3608 10.471 35.9428 11.4281 37.0893 12.7691C39.8577 12.733 42.099 10.4709 42.099 7.69404C42.099 4.89463 39.8216 2.61719 37.0222 2.61719Z" fill="#600004"></path><path d="M42.4282 14.1758H38.0547C38.6587 15.2976 39.0022 16.5795 39.0022 17.9403V25.1292H46.9418V18.6893C46.9418 16.2005 44.917 14.1758 42.4282 14.1758Z" fill="#600004"></path></g><defs><clipPath id="clip0_842_2025"><rect width="50" height="50" fill="white"></rect></clipPath></defs></svg> 