<?xml version="1.0" encoding="UTF-8"?> <svg xmlns="http://www.w3.org/2000/svg" width="70" height="70" viewBox="0 0 70 70" fill="none"><rect width="70" height="70" rx="15.2174" fill="#600004"></rect><path fill-rule="evenodd" clip-rule="evenodd" d="M25.3642 36.4117C23.3649 36.4117 21.7442 38.0324 21.7442 40.0317C21.7442 42.0309 23.3649 43.6517 25.3642 43.6517C27.3634 43.6517 28.9842 42.0309 28.9842 40.0317C28.9842 38.0324 27.3634 36.4117 25.3642 36.4117ZM36.6596 24.4123C37.0212 24.0487 37.6092 24.0471 37.9729 24.4087C38.3365 24.7704 38.3381 25.3583 37.9765 25.722L34.8749 28.8528C34.5156 29.214 33.9331 29.2179 33.569 28.8636L32.0344 27.3678C31.6667 27.0102 31.6586 26.4222 32.0162 26.0546C32.3738 25.687 32.9617 25.6788 33.3294 26.0364L34.205 26.89L36.6596 24.4123ZM42.4005 31.0079C43.7591 30.5375 44.3815 28.6219 43.5589 27.4427C43.2128 26.9467 43.2127 26.3184 43.5588 25.8223C44.3816 24.6432 43.7591 22.7276 42.4005 22.2571C41.829 22.0593 41.4596 21.551 41.4481 20.9463C41.4206 19.5088 39.791 18.3248 38.4154 18.7428C37.8367 18.9187 37.2391 18.7246 36.8744 18.2421C36.0072 17.0953 33.9929 17.0952 33.1257 18.242C32.7609 18.7245 32.1633 18.9187 31.5846 18.7428C30.209 18.3248 28.5794 19.5087 28.5519 20.9462C28.5403 21.5509 28.1711 22.0593 27.5995 22.2571C26.2408 22.7274 25.6183 24.6432 26.441 25.8223C26.7871 26.3183 26.7871 26.9466 26.441 27.4426C25.6183 28.6218 26.2407 30.5375 27.5994 31.0079C28.171 31.2057 28.5403 31.714 28.5519 32.3187C28.5794 33.7562 30.2089 34.9402 31.5845 34.5222C32.1633 34.3463 32.7608 34.5403 33.1257 35.0228C33.9928 36.1697 36.0072 36.1697 36.8744 35.0229C37.2392 34.5404 37.8367 34.3463 38.4154 34.5222C39.791 34.9402 41.4207 33.7563 41.4481 32.3188C41.4596 31.714 41.8288 31.2057 42.4005 31.0079ZM34.9999 21.4432C32.1339 21.4432 29.8105 23.7666 29.8105 26.6325C29.8105 29.4985 32.1339 31.8219 34.9999 31.8219C37.8659 31.8219 40.1893 29.4985 40.1893 26.6325C40.1893 23.7665 37.8659 21.4432 34.9999 21.4432ZM27.8145 52.0796C28.0931 48.3662 31.2185 45.4142 35 45.4142C38.7814 45.4142 41.9068 48.3662 42.1854 52.0796C42.2075 52.3729 41.9783 52.6198 41.6842 52.6198H28.3158C28.0216 52.6198 27.7925 52.3729 27.8145 52.0796ZM34.9999 37.2494C32.8491 37.2494 31.1055 38.993 31.1055 41.1439C31.1055 43.2947 32.849 45.0382 34.9999 45.0382C37.1507 45.0382 38.8943 43.2947 38.8943 41.1439C38.8943 38.993 37.1508 37.2494 34.9999 37.2494ZM39.9586 45.9161C41.513 47.0692 42.6599 48.7497 43.1223 50.6991H50.8489C51.1224 50.6991 51.3353 50.4697 51.3148 50.197C51.0559 46.7453 48.1507 44.0013 44.6356 44.0013C42.8205 44.0013 41.1681 44.733 39.9586 45.9161ZM18.685 50.197C18.6645 50.4697 18.8774 50.6991 19.151 50.6991H26.8777C27.34 48.7498 28.4869 47.0692 30.0413 45.9162C28.8318 44.733 27.1793 44.0013 25.3642 44.0013C21.8492 44.0013 18.9439 46.7453 18.685 50.197ZM44.6356 36.4117C42.6364 36.4117 41.0156 38.0324 41.0156 40.0317C41.0156 42.0309 42.6364 43.6517 44.6356 43.6517C46.6349 43.6517 48.2557 42.0309 48.2557 40.0317C48.2557 38.0324 46.6349 36.4117 44.6356 36.4117Z" fill="white"></path></svg> 