<?xml version="1.0" encoding="UTF-8"?> <svg xmlns="http://www.w3.org/2000/svg" width="70" height="70" viewBox="0 0 70 70" fill="none"><rect width="70" height="70" rx="15.2174" fill="#600004"></rect><path d="M19.0234 44.1323C19.0234 44.5798 19.2848 44.9861 19.6927 45.1711L32.0867 50.9802L32.147 35.3665L19.0234 29.3094V44.1323Z" fill="white"></path><path d="M39.6083 32.448L33.2871 35.3655L33.2266 50.9779L45.7442 45.1689C46.1521 44.9838 46.4135 44.5776 46.4135 44.1301V33.5219C45.6895 33.7383 44.9243 33.8584 44.1309 33.8584C42.4526 33.8584 40.8954 33.3356 39.6083 32.448Z" fill="white"></path><path d="M36.1427 25.8709C36.1427 25.2244 36.2283 24.5989 36.3739 23.9965L33.1908 22.5496C32.891 22.4125 32.5466 22.4125 32.2467 22.5496C32.2467 22.5496 19.6304 28.2979 19.5977 28.3168L32.7188 34.3728L38.6267 31.646C37.0999 30.1901 36.1427 28.1422 36.1427 25.8709Z" fill="white"></path><path d="M44.133 19.0228C40.351 19.0228 37.2852 22.0887 37.2852 25.8707C37.2852 29.6526 40.351 32.7185 44.133 32.7185C47.9149 32.7185 50.9808 29.6526 50.9808 25.8707C50.9808 22.0887 47.9149 19.0228 44.133 19.0228ZM46.9456 23.2292L44.663 28.9357C44.5916 29.114 44.4356 29.2444 44.2478 29.2829C44.2093 29.2907 44.1709 29.2946 44.133 29.2946C43.9831 29.2946 43.8376 29.2355 43.7295 29.1274L41.4469 26.8448C41.224 26.6219 41.224 26.2608 41.4469 26.0378C41.6698 25.8149 42.0309 25.8149 42.2538 26.0378L43.9246 27.7086L45.8856 22.8056C46.0026 22.5119 46.337 22.3704 46.6274 22.4874C46.9199 22.6045 47.0626 22.9366 46.9456 23.2292Z" fill="white"></path></svg> 